<?xml version="1.0" standalone="no"?>
<!DOCTYPE svg PUBLIC "-//W3C//DTD SVG 20010904//EN"
 "http://www.w3.org/TR/2001/REC-SVG-20010904/DTD/svg10.dtd">
<svg version="1.0" xmlns="http://www.w3.org/2000/svg"
 width="200.000000pt" height="200.000000pt" viewBox="0 0 200.000000 200.000000"
 preserveAspectRatio="xMidYMid meet">
<metadata>
Created by potrace 1.14, written by Peter Selinger 2001-2017
</metadata>
<g transform="translate(0.000000,200.000000) scale(0.100000,-0.100000)"
fill="#000000" stroke="none">
<path d="M66 1548 c8 -28 67 -162 124 -283 24 -49 59 -128 80 -175 21 -47 52
-115 69 -152 142 -308 151 -328 151 -333 0 -9 83 -180 90 -185 5 -3 68 -3 140
0 104 4 135 8 141 20 5 8 20 42 35 75 31 70 72 157 143 308 28 60 51 111 51
114 0 3 24 55 54 116 80 164 159 231 289 244 60 6 149 -21 202 -61 l33 -25 98
94 99 95 -30 25 c-17 13 -35 28 -40 33 -96 80 -282 125 -424 103 -207 -32
-354 -147 -456 -356 -165 -339 -197 -405 -201 -405 -3 0 -16 24 -28 53 -13 28
-53 113 -89 188 -35 75 -86 185 -113 245 -70 159 -96 205 -136 237 -45 36 -90
46 -201 47 -87 0 -88 0 -81 -22z"/>
<path d="M1143 923 c-7 -3 -13 -9 -13 -15 0 -5 -13 -37 -28 -71 -103 -225 -96
-203 -77 -229 53 -70 199 -155 303 -177 126 -26 272 -7 387 51 62 32 82 45
133 89 11 9 -4 30 -79 105 -52 52 -98 94 -102 94 -5 0 -22 -11 -39 -25 -68
-58 -220 -70 -310 -24 -70 36 -135 115 -160 195 -1 6 -9 9 -15 7z"/>
</g>
</svg>
